<?xml version="1.0" encoding="UTF-8" standalone="no"?>
<!DOCTYPE svg PUBLIC "-//W3C//DTD SVG 1.1//EN"
 "http://www.w3.org/Graphics/SVG/1.1/DTD/svg11.dtd">
<!-- Generated by graphviz version 8.1.0 (20230707.0739)
 -->
<!-- Pages: 1 -->
<svg width="1915pt" height="271pt"
 viewBox="0.00 0.00 1914.65 271.20" xmlns="http://www.w3.org/2000/svg" xmlns:xlink="http://www.w3.org/1999/xlink">
<g id="graph0" class="graph" transform="scale(1 1) rotate(0) translate(4 267.2)">
<polygon fill="white" stroke="none" points="-4,4 -4,-267.2 1910.65,-267.2 1910.65,4 -4,4"/>
<text text-anchor="middle" x="246.88" y="-245.9" font-family="Times,serif" font-size="14.00">浮動小数点数判定の状態遷移図（その他(S9(NG))への遷移を省略して記述）</text>
<g id="node1" class="node">
<title></title>
<ellipse fill="black" stroke="black" cx="7.2" cy="-100.2" rx="7.2" ry="7.2"/>
</g>
<!-- S0 -->
<g id="node3" class="node">
<title>S0</title>
<ellipse fill="none" stroke="black" cx="94.6" cy="-100.2" rx="43.2" ry="43.2"/>
<text text-anchor="middle" x="94.6" y="-95.15" font-family="Times,serif" font-size="14.00">S0</text>
</g>
<!-- &#45;&gt;S0 -->
<g id="edge1" class="edge">
<title>&#45;&gt;S0</title>
<path fill="none" stroke="black" d="M14.62,-100.2C20.55,-100.2 29.98,-100.2 40.29,-100.2"/>
<polygon fill="black" stroke="black" points="40.25,-103.7 50.25,-100.2 40.25,-96.7 40.25,-103.7"/>
</g>
<!-- S8(OK) -->
<g id="node2" class="node">
<title>S8(OK)</title>
<ellipse fill="none" stroke="black" cx="1859.45" cy="-105.2" rx="43.2" ry="43.2"/>
<ellipse fill="none" stroke="black" cx="1859.45" cy="-105.2" rx="47.2" ry="47.2"/>
<text text-anchor="middle" x="1859.45" y="-100.15" font-family="Times,serif" font-size="14.00">S8(OK)</text>
</g>
<!-- S1 -->
<g id="node4" class="node">
<title>S1</title>
<ellipse fill="none" stroke="black" cx="354.93" cy="-100.2" rx="43.2" ry="43.2"/>
<text text-anchor="middle" x="354.93" y="-95.15" font-family="Times,serif" font-size="14.00">S1</text>
</g>
<!-- S0&#45;&gt;S1 -->
<g id="edge2" class="edge">
<title>S0&#45;&gt;S1</title>
<path fill="none" stroke="black" d="M138.26,-100.2C182.79,-100.2 252.73,-100.2 300.82,-100.2"/>
<polygon fill="black" stroke="black" points="300.63,-103.7 310.63,-100.2 300.63,-96.7 300.63,-103.7"/>
<text text-anchor="middle" x="214.3" y="-103.4" font-family="Times,serif" font-size="14.00">＋|－／次の文字へ</text>
</g>
<!-- S2 -->
<g id="node5" class="node">
<title>S2</title>
<ellipse fill="none" stroke="black" cx="626.5" cy="-43.2" rx="43.2" ry="43.2"/>
<text text-anchor="middle" x="626.5" y="-38.15" font-family="Times,serif" font-size="14.00">S2</text>
</g>
<!-- S0&#45;&gt;S2 -->
<g id="edge3" class="edge">
<title>S0&#45;&gt;S2</title>
<path fill="none" stroke="black" d="M134.23,-82.67C172.92,-66.15 234.61,-42.58 290.8,-33.2 389.39,-16.75 506.52,-26.91 572.81,-35.35"/>
<polygon fill="black" stroke="black" points="572.03,-38.91 582.4,-36.74 572.94,-31.97 572.03,-38.91"/>
<text text-anchor="middle" x="354.93" y="-34.9" font-family="Times,serif" font-size="14.00">小数点／次の文字へ</text>
</g>
<!-- S3 -->
<g id="node6" class="node">
<title>S3</title>
<ellipse fill="none" stroke="black" cx="626.5" cy="-155.2" rx="43.2" ry="43.2"/>
<text text-anchor="middle" x="626.5" y="-150.15" font-family="Times,serif" font-size="14.00">S3</text>
</g>
<!-- S0&#45;&gt;S3 -->
<g id="edge4" class="edge">
<title>S0&#45;&gt;S3</title>
<path fill="none" stroke="black" d="M135.56,-114.83C142.27,-117.09 149.21,-119.3 155.8,-121.2 331.47,-171.84 382.63,-167.77 565.3,-160.2 567.55,-160.11 569.85,-159.99 572.17,-159.87"/>
<polygon fill="black" stroke="black" points="572.34,-163.3 582.1,-159.16 571.9,-156.31 572.34,-163.3"/>
<text text-anchor="middle" x="354.93" y="-165.9" font-family="Times,serif" font-size="14.00">０～９／次の文字へ</text>
</g>
<!-- S1&#45;&gt;S2 -->
<g id="edge5" class="edge">
<title>S1&#45;&gt;S2</title>
<path fill="none" stroke="black" d="M397.46,-91.42C444.75,-81.42 522.09,-65.07 573.39,-54.22"/>
<polygon fill="black" stroke="black" points="573.86,-57.48 582.92,-51.99 572.41,-50.64 573.86,-57.48"/>
<text text-anchor="middle" x="501.18" y="-83.9" font-family="Times,serif" font-size="14.00">小数点／次の文字へ</text>
</g>
<!-- S1&#45;&gt;S3 -->
<g id="edge6" class="edge">
<title>S1&#45;&gt;S3</title>
<path fill="none" stroke="black" d="M397.75,-108.73C445.11,-118.4 522.32,-134.15 573.51,-144.59"/>
<polygon fill="black" stroke="black" points="572.52,-148.17 583.02,-146.74 573.92,-141.31 572.52,-148.17"/>
<text text-anchor="middle" x="501.18" y="-142.9" font-family="Times,serif" font-size="14.00">０～９／次の文字へ</text>
</g>
<!-- S4 -->
<g id="node7" class="node">
<title>S4</title>
<ellipse fill="none" stroke="black" cx="892.45" cy="-43.2" rx="43.2" ry="43.2"/>
<text text-anchor="middle" x="892.45" y="-38.15" font-family="Times,serif" font-size="14.00">S4</text>
</g>
<!-- S2&#45;&gt;S4 -->
<g id="edge7" class="edge">
<title>S2&#45;&gt;S4</title>
<path fill="none" stroke="black" d="M669.91,-43.2C715.7,-43.2 788.73,-43.2 838.32,-43.2"/>
<polygon fill="black" stroke="black" points="838.15,-46.7 848.15,-43.2 838.15,-39.7 838.15,-46.7"/>
<text text-anchor="middle" x="751.83" y="-44.9" font-family="Times,serif" font-size="14.00">０～９／次の文字へ</text>
</g>
<!-- S3&#45;&gt;S8(OK) -->
<g id="edge11" class="edge">
<title>S3&#45;&gt;S8(OK)</title>
<path fill="none" stroke="black" d="M666.51,-171.59C717.34,-191.43 809.42,-222.2 891.45,-222.2 891.45,-222.2 891.45,-222.2 1680.05,-222.2 1735.6,-222.2 1787.29,-182.04 1820.58,-148.78"/>
<polygon fill="black" stroke="black" points="1822.75,-151.54 1827.22,-141.94 1817.74,-146.66 1822.75,-151.54"/>
<text text-anchor="middle" x="1266.85" y="-225.4" font-family="Times,serif" font-size="14.00">EOS／－</text>
</g>
<!-- S3&#45;&gt;S3 -->
<g id="edge8" class="edge">
<title>S3&#45;&gt;S3</title>
<path fill="none" stroke="black" d="M603.04,-191.94C602.4,-205.39 610.22,-216.4 626.5,-216.4 638.07,-216.4 645.37,-210.83 648.39,-202.79"/>
<polygon fill="black" stroke="black" points="651.99,-203.34 649.96,-192.94 645.07,-202.34 651.99,-203.34"/>
<text text-anchor="middle" x="626.5" y="-218.1" font-family="Times,serif" font-size="14.00">０～９／次の文字へ</text>
</g>
<!-- S3&#45;&gt;S4 -->
<g id="edge9" class="edge">
<title>S3&#45;&gt;S4</title>
<path fill="none" stroke="black" d="M665.87,-136.28C673.09,-132.84 680.6,-129.35 687.7,-126.2 739.67,-103.12 800.11,-78.81 841.58,-62.51"/>
<polygon fill="black" stroke="black" points="842.67,-65.45 850.7,-58.55 840.12,-58.94 842.67,-65.45"/>
<text text-anchor="middle" x="751.83" y="-127.9" font-family="Times,serif" font-size="14.00">小数点／次の文字へ</text>
</g>
<!-- S5 -->
<g id="node8" class="node">
<title>S5</title>
<ellipse fill="none" stroke="black" cx="1147.15" cy="-119.2" rx="43.2" ry="43.2"/>
<text text-anchor="middle" x="1147.15" y="-114.15" font-family="Times,serif" font-size="14.00">S5</text>
</g>
<!-- S3&#45;&gt;S5 -->
<g id="edge10" class="edge">
<title>S3&#45;&gt;S5</title>
<path fill="none" stroke="black" d="M669.94,-152.25C764.01,-145.72 989.85,-130.05 1093.07,-122.88"/>
<polygon fill="black" stroke="black" points="1093.11,-126.32 1102.85,-122.14 1092.63,-119.34 1093.11,-126.32"/>
<text text-anchor="middle" x="892.45" y="-143.4" font-family="Times,serif" font-size="14.00">Ｅ|ｅ／次の文字へ</text>
</g>
<!-- S4&#45;&gt;S8(OK) -->
<g id="edge14" class="edge">
<title>S4&#45;&gt;S8(OK)</title>
<path fill="none" stroke="black" d="M935.39,-37.57C985.45,-31.35 1071.75,-22.2 1146.15,-22.2 1146.15,-22.2 1146.15,-22.2 1680.05,-22.2 1728.5,-22.2 1778.02,-47.67 1812.56,-70.4"/>
<polygon fill="black" stroke="black" points="1810.2,-73.7 1820.44,-76.4 1814.12,-67.9 1810.2,-73.7"/>
<text text-anchor="middle" x="1407.48" y="-25.4" font-family="Times,serif" font-size="14.00">EOS／－</text>
</g>
<!-- S4&#45;&gt;S4 -->
<g id="edge12" class="edge">
<title>S4&#45;&gt;S4</title>
<path fill="none" stroke="black" d="M867.26,-78.73C865.99,-92.72 874.39,-104.4 892.45,-104.4 905.57,-104.4 913.59,-98.23 916.51,-89.49"/>
<polygon fill="black" stroke="black" points="920.08,-90.04 917.64,-79.73 913.12,-89.31 920.08,-90.04"/>
<text text-anchor="middle" x="892.45" y="-106.1" font-family="Times,serif" font-size="14.00">０～９／次の文字へ</text>
</g>
<!-- S4&#45;&gt;S5 -->
<g id="edge13" class="edge">
<title>S4&#45;&gt;S5</title>
<path fill="none" stroke="black" d="M934.33,-55.5C978.1,-68.66 1047.61,-89.57 1094.98,-103.81"/>
<polygon fill="black" stroke="black" points="1093.74,-107.39 1104.33,-106.92 1095.76,-100.69 1093.74,-107.39"/>
<text text-anchor="middle" x="1027.45" y="-103.4" font-family="Times,serif" font-size="14.00">Ｅ|ｅ／次の文字へ</text>
</g>
<!-- S6 -->
<g id="node9" class="node">
<title>S6</title>
<ellipse fill="none" stroke="black" cx="1407.48" cy="-151.2" rx="43.2" ry="43.2"/>
<text text-anchor="middle" x="1407.48" y="-146.15" font-family="Times,serif" font-size="14.00">S6</text>
</g>
<!-- S5&#45;&gt;S6 -->
<g id="edge15" class="edge">
<title>S5&#45;&gt;S6</title>
<path fill="none" stroke="black" d="M1190.52,-124.45C1235.14,-129.98 1305.47,-138.69 1353.67,-144.66"/>
<polygon fill="black" stroke="black" points="1353.16,-148.25 1363.51,-146 1354.02,-141.3 1353.16,-148.25"/>
<text text-anchor="middle" x="1266.85" y="-143.4" font-family="Times,serif" font-size="14.00">＋|－／次の文字へ</text>
</g>
<!-- S7 -->
<g id="node10" class="node">
<title>S7</title>
<ellipse fill="none" stroke="black" cx="1679.05" cy="-105.2" rx="43.2" ry="43.2"/>
<text text-anchor="middle" x="1679.05" y="-100.15" font-family="Times,serif" font-size="14.00">S7</text>
</g>
<!-- S5&#45;&gt;S7 -->
<g id="edge16" class="edge">
<title>S5&#45;&gt;S7</title>
<path fill="none" stroke="black" d="M1189.75,-109.53C1229.07,-100.91 1289.85,-88.96 1343.35,-84.2 1442.92,-75.34 1559.48,-87.81 1625.45,-96.99"/>
<polygon fill="black" stroke="black" points="1624.6,-100.54 1634.99,-98.48 1625.58,-93.61 1624.6,-100.54"/>
<text text-anchor="middle" x="1407.48" y="-85.9" font-family="Times,serif" font-size="14.00">０～９／次の文字へ</text>
</g>
<!-- S6&#45;&gt;S7 -->
<g id="edge17" class="edge">
<title>S6&#45;&gt;S7</title>
<path fill="none" stroke="black" d="M1450.3,-144.06C1497.42,-136.02 1574.09,-122.94 1625.29,-114.2"/>
<polygon fill="black" stroke="black" points="1625.86,-117.49 1635.13,-112.35 1624.68,-110.59 1625.86,-117.49"/>
<text text-anchor="middle" x="1553.73" y="-137.9" font-family="Times,serif" font-size="14.00">０～９／次の文字へ</text>
</g>
<!-- S7&#45;&gt;S8(OK) -->
<g id="edge19" class="edge">
<title>S7&#45;&gt;S8(OK)</title>
<path fill="none" stroke="black" d="M1722.33,-105.2C1745.86,-105.2 1775.48,-105.2 1801.08,-105.2"/>
<polygon fill="black" stroke="black" points="1800.77,-108.7 1810.77,-105.2 1800.77,-101.7 1800.77,-108.7"/>
<text text-anchor="middle" x="1767.25" y="-108.4" font-family="Times,serif" font-size="14.00">EOS／－</text>
</g>
<!-- S7&#45;&gt;S7 -->
<g id="edge18" class="edge">
<title>S7&#45;&gt;S7</title>
<path fill="none" stroke="black" d="M1662.56,-145.52C1663.13,-157.29 1668.63,-166.4 1679.05,-166.4 1686.05,-166.4 1690.83,-162.29 1693.39,-156.02"/>
<polygon fill="black" stroke="black" points="1696.96,-157.02 1695.54,-146.52 1690.1,-155.61 1696.96,-157.02"/>
<text text-anchor="middle" x="1679.05" y="-168.1" font-family="Times,serif" font-size="14.00">０～９／次の文字へ</text>
</g>
</g>
</svg>
